<svg xmlns="http://www.w3.org/2000/svg" xmlns:xlink="http://www.w3.org/1999/xlink" width="149" height="174" version="1.1" viewBox="0 0 149 174"><title>Point_Graphic_CSS</title><desc>Created with Sketch.</desc><g id="Page-1" fill="none" fill-rule="evenodd" stroke="none" stroke-width="1"><g id="Point_Graphic_CSS"><g id="Graphic" transform="translate(1.000000, 2.000000)"><rect id="Backdrop" width="147" height="170" x="0" y="0" fill="#FFF" stroke="#979797"/><g id="Callout" transform="translate(7.000000, 107.000000)"><text id="Label-copy" fill="#000" font-family="ProximaNova-Light, Proxima Nova" font-size="12" font-weight="300"><tspan x="0" y="27">mark: url(airport.svg);</tspan> <tspan x="0" y="42">mark-mime: &apos;image/svg&apos;;</tspan></text><path id="Line" stroke="#979797" stroke-linecap="square" d="M2.5,16.5 L27.5,16.5"/><path id="Line" stroke="#979797" stroke-linecap="square" d="M22.5,0.5 L11.5,16.5"/></g><path id="icon" fill="#FFF" stroke="#000" stroke-width="1" d="M36.6672667,82.5 C35.6050681,82.6606358 34.5104165,91.8766274 34.5104165,91.8766274 C34.5104165,91.8766274 25.6922714,96.0778696 25.8181695,97.0222207 C25.9440677,97.9665719 34.9350583,95.4034828 34.9350583,95.4034828 L35.2550969,100.775643 C35.2550969,100.775643 31.3368845,102.982419 32.1569676,102.982419 L41.1217751,102.982419 C41.6471963,102.982419 37.9137368,100.775643 37.9137368,100.775643 L38.1697595,95.4034828 C38.1697595,95.4034828 46.8323696,98.0932924 46.8323696,97.0222207 C46.8323697,95.9511491 38.5151152,92.0470382 38.5151152,92.0470382 C38.5151152,92.0470382 37.7294653,82.3393642 36.6672667,82.5 Z"/><text fill="#000" font-family="ProximaNova-Semibold, Proxima Nova" font-size="13" font-weight="500"><tspan x="36.354" y="14">Graphic</tspan></text></g></g></g></svg>