<svg xmlns="http://www.w3.org/2000/svg" xmlns:xlink="http://www.w3.org/1999/xlink" width="400" height="81" version="1.1" viewBox="0 0 400 81"><title>symbolizer-order4</title><desc>Created with Sketch.</desc><g id="Page-1" fill="none" fill-rule="evenodd" stroke="none" stroke-width="1"><g id="symbolizer-order4"><rect id="Rectangle-1-Copy-7" width="94.179" height="63.852" x="55.911" y="8.574" stroke="#979797" stroke-width="2"/><rect id="Rectangle-1-Copy-6" width="94.179" height="63.852" x="233.911" y="8.574" stroke="#979797" stroke-width="2"/><rect id="Rectangle-16-Copy" width="15" height="14" x="261" y="26.926" fill="#CFAD13"/><rect id="Rectangle-16-Copy-3" width="15" height="14" x="268.5" y="33.5" fill="#CFAD13"/><polygon id="Triangle-1-Copy-2" fill="#F62A15" points="276.5 34 283 46 270 46"/><rect id="Rectangle-16-Copy-2" width="15" height="14" x="83" y="26.926" fill="#CFAD13"/><polygon id="Triangle-1-Copy" fill="#F62A15" points="91 28 97 40 85 40"/><rect id="Rectangle-16-Copy-4" width="15" height="14" x="90.5" y="33.5" fill="#CFAD13"/><polygon id="Triangle-1-Copy-3" fill="#F62A15" points="98.5 34 105 46 92 46"/><rect id="Rectangle-16-Copy-8" width="33.355" height="31.012" x="163.589" y="7.426" fill="#CFAD13"/><polygon id="Triangle-1-Copy-7" fill="#F62A15" points="181.379 9.805 194.721 36.387 168.037 36.387"/><rect id="Rectangle-16-Copy-7" width="33.355" height="31.012" x="180.267" y="21.988" fill="#CFAD13"/><polygon id="Triangle-1-Copy-6" fill="#F62A15" points="198.057 23.096 212.511 49.677 183.603 49.677"/><rect id="Rectangle-16-Copy-10" width="33.355" height="31.012" x="343.589" y="7.426" fill="#CFAD13"/><rect id="Rectangle-16-Copy-9" width="33.355" height="31.012" x="360.267" y="21.988" fill="#CFAD13"/><polygon id="Triangle-1-Copy-9" fill="#F62A15" points="361.379 9.805 374.721 36.387 348.037 36.387"/><polygon id="Triangle-1-Copy-8" fill="#F62A15" points="378.057 23.096 392.511 49.677 363.603 49.677"/><rect id="Rectangle-16-Copy-6" width="15" height="14" x="118.5" y="46" fill="#CFAD13"/><polygon id="Triangle-1-Copy-5" fill="#F62A15" points="126 47 132.5 59 119.5 59"/><rect id="Rectangle-16-Copy-5" width="15" height="14" x="296.5" y="46" fill="#CFAD13"/><polygon id="Triangle-1-Copy-4" fill="#F62A15" points="304 47 310.5 59 297.5 59"/><polygon id="Triangle-1" fill="#F62A15" points="269 28 275 40 263 40"/><path id="Line" stroke="#979797" stroke-dasharray="3" stroke-linecap="square" d="M83.5,26.5 L163.5,8.5"/><path id="Line-Copy" stroke="#979797" stroke-dasharray="3" stroke-linecap="square" d="M91.5,47.5 L179.5,52.5"/><path id="Line-Copy-3" stroke="#979797" stroke-dasharray="3" stroke-linecap="square" d="M264.5,26.5 L344.5,8.5"/><path id="Line-Copy-2" stroke="#979797" stroke-dasharray="3" stroke-linecap="square" d="M272.5,47.5 L360.5,52.5"/></g></g></svg>