<svg xmlns="http://www.w3.org/2000/svg" xmlns:xlink="http://www.w3.org/1999/xlink" width="400" height="82" version="1.1" viewBox="0 0 400 82"><title>symbolizers</title><desc>Created with Sketch.</desc><g id="Page-1" fill="none" fill-rule="evenodd" stroke="none" stroke-width="1"><g id="symbolizers"><rect id="Rectangle-1-Copy-5" width="94.179" height="63.852" x="17.911" y="7.648" stroke="#979797" stroke-width="2"/><circle id="Oval-5" cx="64.089" cy="39.5" r="5" fill="#F6A623" stroke="#000" stroke-width="2"/><text id="text" fill="#000" font-family="Proxima Nova" font-size="12" font-weight="260"><tspan x="54.089" y="55.5">text</tspan></text><g id="Line" stroke="#1E1E97" stroke-width="3" transform="translate(166.089320, 7.500000)"><path d="M0.8984375,64.7666016 L2.25,61.1835938 L4.3984375,57.9990234 L7.62011719,50.5 L11.4355469,43.8046875 L21.0742188,38.0820312 L26.1855469,30.3320312 L33.296875,26.8046875 L38.3515625,20.7392578 L44,17.1376953 L56.0185547,15.0546875 L71.4902344,15.0546875 L76.9072266,12.7949219 L81.3515625,12.7949219"/><path id="Path-33" d="M26.75,29.859375 L26.6943359,20.3417969 L21.6943359,12.6835938 L24.5371094,6.43359375 L24.5371094,0.5"/></g><text id="text" fill="#000" font-family="Proxima Nova" font-size="12" font-weight="260" transform="translate(201.089320, 44.000000) rotate(-40.000000) translate(-201.089320, -44.000000)"><tspan x="191.089" y="47.5">text</tspan></text><rect id="Rectangle-1-Copy-6" width="94.179" height="63.852" x="152.911" y="8.5" stroke="#979797" stroke-width="2"/><rect id="Rectangle-1-Copy-7" width="94.179" height="63.852" x="288.747" y="7.387" fill="#FFF" stroke="#979797" stroke-width="2"/><path id="Path-19" fill="#8181C5" stroke="#000" d="M336.847168,7.38739063 L382.925781,7.38739063 L382.925781,71.2389531 L288.314453,71.2389531 L288.314453,46.0454106 L298.091797,42.9616094 L309.111328,34.5534063 L317.90625,36.2760625 L327.794922,30.7194219 L333.480469,22.1823125 L339.794922,12.7565313 L336.847168,7.38739063 Z"/><path id="Path-20" fill="#FFF" stroke="#000" d="M347.860352,38.6663516 L342.93457,44.2229922 L337.100586,48.1858828 L335.620117,52.5198672 L336.991211,55.6116641 L344.416992,53.1487734 L350.491211,47.1858828 L357.045898,41.0003359 L363.489258,38.6487734 L368.823242,32.0745547 L368.342773,25.2405703 L362.026367,28.5745547 L355.100586,28.9456484 L355.100586,33.1487734 L347.860352,38.6663516 Z"/><rect id="Rectangle-1-Copy-8" width="94.611" height="63.852" x="288.314" y="7.387" stroke="#979797" stroke-width="2"/><text id="text" fill="#000" font-family="Proxima Nova" font-size="12" font-weight="260"><tspan x="307.277" y="58.588">text</tspan></text></g></g></svg>