<svg xmlns="http://www.w3.org/2000/svg" xmlns:xlink="http://www.w3.org/1999/xlink" width="400" height="72" version="1.1" viewBox="0 0 400 72"><title>draw-order-buffer2</title><desc>Created with Sketch.</desc><g id="Page-1" fill="none" fill-rule="evenodd" stroke="none" stroke-width="1"><g id="draw-order-buffer2"><text id="rules:---title:-Rule" fill="#000" font-family="Courier New" font-size="10" font-weight="normal"><tspan x="24" y="26.296">rules:</tspan> <tspan x="24" y="37.296">- title: Rule 2a</tspan> <tspan x="24" y="48.296">- title: Rule 2b</tspan> <tspan x="24" y="59.296">- title: Rule 2c</tspan></text><text id="--title:-Feature-Sty" fill="#000" font-family="Courier New" font-size="10" font-weight="normal"><tspan x="12" y="15.296">- title: Feature Style 2</tspan></text><path id="Path-5" stroke="#000" stroke-dasharray="2" d="M236.050781,28.8857422 L224.550781,32.8857422 L226.050781,37.3857422 L235.550781,41.3857422 L248.050781,43.3857422 L255.050781,33.8857422 L267.550781,33.8857422 L268.050781,26.8857422 L253.050781,23.8857422 L242.050781,23.8857422 L236.050781,28.8857422 Z"/><path id="Path-6" stroke="#D0011B" stroke-dasharray="2" d="M307.041016,30 L295.041016,33 L289.041016,39 L281.041016,38 L267.536133,33.5 L255.550781,33.5 L249.050781,42 L255.550781,44 L265.050781,42.5 L271.072266,45 L263.572266,46 L252.572266,47.5 L239.572266,46.5 L220.036133,45 L252.072266,63 L386.286133,63 L325.286133,28.75 L307.041016,30 Z"/><path id="Path-7" stroke="#4A4A4A" stroke-dasharray="2" d="M226.286133,36.75 L224.536133,32.25 L236.036133,29.5 L242.286133,23.5 L227.786133,23.75 L220.036133,21 L208.286133,20.75 L202.286133,18.25 L172.036133,18 L184.786133,25.5 L199.786133,28.5 L210.286133,29 L214.286133,30.5 L218.036133,33.5 L226.286133,36.75 Z"/><path id="Rectangle-1-Copy-2" stroke="#979797" stroke-width="2" d="M171.959961,18.2955312 L306.000977,18.2955312 L387.040039,63.2955312 L252.999023,63.2955312 L171.959961,18.2955312 Z"/><polygon id="Star-1-Copy" fill="#F8E81C" stroke="#000" points="244.5 36 240.679 37.854 241.409 33.927 238.318 31.146 242.59 30.573 244.5 27 246.41 30.573 250.682 31.146 247.591 33.927 248.321 37.854"/><polygon id="Star-1-Copy-2" fill="#F8E81C" stroke="#000" points="213.5 28 209.679 29.854 210.409 25.927 207.318 23.146 211.59 22.573 213.5 19 215.41 22.573 219.682 23.146 216.591 25.927 217.321 29.854"/><circle id="Oval-1" cx="303" cy="51" r="5" fill="#8B572A" stroke="#000"/></g></g></svg>