<svg xmlns="http://www.w3.org/2000/svg" xmlns:xlink="http://www.w3.org/1999/xlink" width="400" height="72" version="1.1" viewBox="0 0 400 72"><title>draw-order-buffer1</title><desc>Created with Sketch.</desc><g id="Page-1" fill="none" fill-rule="evenodd" stroke="none" stroke-width="1"><g id="draw-order-buffer1"><text id="feature-styles:" fill="#000" font-family="Courier New" font-size="10" font-weight="normal"><tspan x="12" y="15">feature-styles:</tspan> <tspan x="12" y="26">- </tspan> <tspan x="24.002" y="26">title: Feature Style 1</tspan></text><text id="rules:" fill="#000" font-family="Courier New" font-size="10" font-weight="normal"><tspan x="24" y="37.296">rules:</tspan> <tspan x="24" y="48.296">- title: Rule 1a</tspan> <tspan x="24" y="59.296">- title: Rule 1b</tspan></text><path id="Path-5" fill="#22A1CF" stroke="#9B9B9B" d="M236.050781,28.8857422 L224.550781,32.8857422 L226.050781,37.3857422 L235.550781,41.3857422 L248.050781,43.3857422 L255.050781,33.8857422 L267.550781,33.8857422 L268.050781,26.8857422 L253.050781,23.8857422 L242.050781,23.8857422 L236.050781,28.8857422 Z"/><path id="Path-6" fill="#B7D492" stroke="#9B9B9B" d="M307.041016,30 L295.041016,33 L289.041016,39 L281.041016,38 L267.536133,33.5 L255.550781,33.5 L249.050781,42 L255.550781,44 L265.050781,42.5 L271.072266,45 L263.572266,46 L252.572266,47.5 L239.572266,46.5 L220.036133,45 L252.072266,63 L386.286133,63 L325.286133,28.75 L307.041016,30 Z"/><path id="Path-7" fill="#7ED321" stroke="#9B9B9B" d="M226.286133,36.75 L224.536133,32.25 L236.036133,29.5 L242.286133,23.5 L227.786133,23.75 L220.036133,21 L208.286133,20.75 L202.286133,18.25 L172.036133,18 L184.786133,25.5 L199.786133,28.5 L210.286133,29 L214.286133,30.5 L218.036133,33.5 L226.286133,36.75 Z"/><path id="Rectangle-1-Copy" stroke="#979797" stroke-width="2" d="M171.959961,18.2955312 L306.000977,18.2955312 L387.040039,63.2955312 L252.999023,63.2955312 L171.959961,18.2955312 Z"/></g></g></svg>