<svg xmlns="http://www.w3.org/2000/svg" xmlns:xlink="http://www.w3.org/1999/xlink" width="372" height="162" version="1.1" viewBox="0 0 372 162"><title>line-casing-buffers</title><desc>Created with Sketch.</desc><g id="Page-1" fill="none" fill-rule="evenodd" stroke="none" stroke-width="1"><g id="line-casing-buffers"><path id="Path-1-Copy-2" fill="#000" d="M20.0175781,103.550781 L125.938846,119.882012 L174.017578,93.4980469 L194.990234,93.4980469 L141.999023,122.739258 L322.249023,150.489258 L248.999023,149.989258 L44.0195313,120.332031 L20.0175781,103.550781 Z"/><path id="Path-1-Copy-3" fill="#4F8" d="M25.0136719,25.026 L126.995117,40.2490234 L177.990234,11.4980469 L189.495117,11.4980469 L135.499023,41.7490234 L307.249023,68.2392578 L263.749023,67.7392578 L39.5136719,35.026 L25.0136719,25.026 Z"/><text id="Inner-line" fill="#000" font-family="Proxima Nova" font-size="13" font-weight="526"><tspan x="279" y="24">Inner line</tspan></text><text id="Outer-line" fill="#000" font-family="Proxima Nova" font-size="13" font-weight="526"><tspan x="280" y="105">Outer line</tspan></text><path id="Rectangle-1" stroke="#979797" stroke-width="2" d="M7,93 L257,93 L338.039062,151.039062 L88.0390625,151.039062 L7,93 Z"/><path id="Rectangle-1-Copy" stroke="#979797" stroke-width="2" d="M7,12 L257,12 L338.039062,70.0390625 L88.0390625,70.0390625 L7,12 Z"/></g></g></svg>