<svg xmlns="http://www.w3.org/2000/svg" xmlns:xlink="http://www.w3.org/1999/xlink" width="470" height="139" version="1.1" viewBox="0 0 470 139"><title>structure_rule</title><desc>Created with Sketch.</desc><g id="Page-1" fill="none" fill-rule="evenodd" stroke="none" stroke-width="1"><g id="structure_rule"><rect id="box" width="122" height="51" x="5" y="5" fill="#F2F2F2" stroke="#4A4A4A" rx="4"/><text id="feature-style" fill="#000" font-family="Arial" font-size="12" font-weight="bold"><tspan x="30.5" y="16.839">feature-style</tspan></text><g id="feature_style" transform="translate(8.500000, 8.354037)"><path id="border" fill="#F4D7BD" stroke="#FFF" d="M0.754882812,6.50254149 L5.75488281,0.423348942 L16.5048828,0.423348942 L11.5048828,6.50254149 L0.754882812,6.50254149 Z"/><path id="edge" stroke="#B1792C" d="M0.754882812,6.50254149 L5.75488281,0.423348942 L16.5048828,0.423348942 L11.5048828,6.50254149 L0.754882812,6.50254149 Z"/></g><g id="rule" transform="translate(29.500000, 22.000000)"><rect id="Rectangle-3-Copy" width="147" height="56" x="0" y="0" fill="#FFF" stroke="#000" rx="5"/><text fill="#000" font-family="Arial" font-size="12" font-weight="bold"><tspan x="27" y="15">rule</tspan></text><text id="filter:-${category='" fill="#000" font-family="Arial" font-size="10" font-weight="normal"><tspan x="27" y="25">filter: ${category=&apos;hiway&apos;}</tspan></text><g id="rule-copy" transform="translate(6.000000, 5.000000)"><path id="interior" fill="#F4D7BD" stroke="#FFF" d="M7.09110273,0.0048828125 C7.09110273,0.0048828125 0.70449367,3.7069664 0.70449367,5.87154961 C0.70449367,8.03613281 7.09110273,12.0048828 7.09110273,12.0048828 L13.4684786,5.87154961 L7.09110273,0.0048828125 Z"/><path id="edge" stroke="#B1792C" d="M7.09110273,0.0048828125 C7.09110273,0.0048828125 0.70449367,3.7069664 0.70449367,5.87154961 C0.70449367,8.03613281 7.09110273,12.0048828 7.09110273,12.0048828 L13.4684786,5.87154961 L7.09110273,0.0048828125 Z"/></g></g><g id="rule-copy-3" transform="translate(29.000000, 75.937888)"><rect id="Rectangle-3-Copy" width="147" height="54" x="0" y="1" fill="#FFF" stroke="#000" rx="5"/><text id="rule" fill="#000" font-family="Arial" font-size="12" font-weight="bold"><tspan x="27" y="16">rule</tspan></text><text id="else:-true" fill="#000" font-family="Arial" font-size="10" font-weight="normal"><tspan x="27" y="26">else: true</tspan></text><g id="rule-copy" transform="translate(6.000000, 5.000000)"><path id="interior" fill="#F4D7BD" stroke="#FFF" d="M7.09110273,0.0048828125 C7.09110273,0.0048828125 0.70449367,3.7069664 0.70449367,5.87154961 C0.70449367,8.03613281 7.09110273,12.0048828 7.09110273,12.0048828 L13.4684786,5.87154961 L7.09110273,0.0048828125 Z"/><path id="edge" stroke="#B1792C" d="M7.09110273,0.0048828125 C7.09110273,0.0048828125 0.70449367,3.7069664 0.70449367,5.87154961 C0.70449367,8.03613281 7.09110273,12.0048828 7.09110273,12.0048828 L13.4684786,5.87154961 L7.09110273,0.0048828125 Z"/></g></g><g id="symbolizer" transform="translate(56.000000, 52.000000)"><rect id="symbolizer_box" width="163" height="20" x="0" y="0" fill="#FFF" stroke="#4A4A4A"/><text id="linestring" fill="#000" font-family="Arial" font-size="12" font-weight="bold"><tspan x="21" y="15">linestring</tspan></text><g id="linestring_icon" stroke="#5D74BC" transform="translate(4.000000, 4.000000)"><path id="Path-70" stroke-linecap="round" stroke-linejoin="round" stroke-width="1.5" d="M1.28727214,1.00708008 L1.28727214,10.1871745 L9.6402181,1.00708008 L9.6402181,10.1871745"/><circle id="Oval-1" cx="1.375" cy="1.375" r="1.375" fill="#27A4F1"/><circle id="Oval-1-copy" cx="1.375" cy="9.625" r="1.375" fill="#27A4F1"/><circle id="Oval-1-copy-2" cx="9.625" cy="1.375" r="1.375" fill="#27A4F1"/><circle id="Oval-1-copy-3" cx="9.625" cy="9.625" r="1.375" fill="#27A4F1"/></g></g><g id="symbolizer-other" transform="translate(56.000000, 105.000000)"><rect id="symbolizer_box" width="163" height="20" x="0" y="0" fill="#FFF" stroke="#4A4A4A"/><text id="linestring" fill="#000" font-family="Arial" font-size="12" font-weight="bold"><tspan x="21" y="14">linestring</tspan></text><g id="linestring_icon" stroke="#4A4A4A" transform="translate(4.000000, 3.000000)"><path id="Path-70" stroke-linecap="round" stroke-linejoin="round" stroke-width="1.5" d="M1.28727214,1.00708008 L1.28727214,10.1871745 L9.6402181,1.00708008 L9.6402181,10.1871745"/><circle id="Oval-1" cx="1.375" cy="1.375" r="1.375" fill="#27A4F1"/><circle id="Oval-1-copy" cx="1.375" cy="9.625" r="1.375" fill="#27A4F1"/><circle id="Oval-1-copy-2" cx="9.625" cy="1.375" r="1.375" fill="#27A4F1"/><circle id="Oval-1-copy-3" cx="9.625" cy="9.625" r="1.375" fill="#27A4F1"/></g></g></g></g></svg>