<svg xmlns="http://www.w3.org/2000/svg" xmlns:xlink="http://www.w3.org/1999/xlink" width="470" height="134" version="1.1" viewBox="0 0 470 134"><title>structure_feature_style</title><desc>Created with Sketch.</desc><g id="Page-1" fill="none" fill-rule="evenodd" stroke="none" stroke-width="1"><g id="structure_feature_style"><rect id="box" width="143" height="122" x="7" y="5" fill="#F2F2F2" stroke="#4A4A4A" rx="4"/><text id="feature-style" fill="#000" font-family="Arial" font-size="12" font-weight="bold"><tspan x="33" y="17">feature-style</tspan></text><g id="feature_style" transform="translate(11.000000, 10.000000)"><path id="border" fill="#F4D7BD" stroke="#FFF" d="M0.754882812,6.50254149 L5.75488281,0.423348942 L16.5048828,0.423348942 L11.5048828,6.50254149 L0.754882812,6.50254149 Z"/><path id="edge" stroke="#B1792C" d="M0.754882812,6.50254149 L5.75488281,0.423348942 L16.5048828,0.423348942 L11.5048828,6.50254149 L0.754882812,6.50254149 Z"/></g><text id="name" fill="#000" font-family="Arial" font-size="10" font-weight="normal"><tspan x="33" y="28">name</tspan> <tspan x="33" y="39">title</tspan> <tspan x="33" y="50">abstract</tspan></text><g id="rule" transform="translate(32.500000, 57.000000)"><rect id="Rectangle-3-Copy" width="147" height="21" x="0" y="0" fill="#FFF" stroke="#000" rx="5"/><text fill="#000" font-family="Arial" font-size="12" font-weight="bold"><tspan x="28.182" y="14">rule</tspan></text><g id="rule-copy" transform="translate(6.262774, 4.000000)"><path id="interior" fill="#F4D7BD" stroke="#FFF" d="M7.09110273,0.0048828125 C7.09110273,0.0048828125 0.70449367,3.7069664 0.70449367,5.87154961 C0.70449367,8.03613281 7.09110273,12.0048828 7.09110273,12.0048828 L13.4684786,5.87154961 L7.09110273,0.0048828125 Z"/><path id="edge" stroke="#B1792C" d="M7.09110273,0.0048828125 C7.09110273,0.0048828125 0.70449367,3.7069664 0.70449367,5.87154961 C0.70449367,8.03613281 7.09110273,12.0048828 7.09110273,12.0048828 L13.4684786,5.87154961 L7.09110273,0.0048828125 Z"/></g></g><g id="rule-copy-2" transform="translate(32.500000, 77.000000)"><rect id="Rectangle-3-Copy" width="147" height="21" x="0" y="0" fill="#FFF" stroke="#000" rx="5"/><text id="rule" fill="#000" font-family="Arial" font-size="12" font-weight="bold"><tspan x="28.182" y="14">rule</tspan></text><g id="rule-copy" transform="translate(6.262774, 4.000000)"><path id="interior" fill="#F4D7BD" stroke="#FFF" d="M7.09110273,0.0048828125 C7.09110273,0.0048828125 0.70449367,3.7069664 0.70449367,5.87154961 C0.70449367,8.03613281 7.09110273,12.0048828 7.09110273,12.0048828 L13.4684786,5.87154961 L7.09110273,0.0048828125 Z"/><path id="edge" stroke="#B1792C" d="M7.09110273,0.0048828125 C7.09110273,0.0048828125 0.70449367,3.7069664 0.70449367,5.87154961 C0.70449367,8.03613281 7.09110273,12.0048828 7.09110273,12.0048828 L13.4684786,5.87154961 L7.09110273,0.0048828125 Z"/></g></g><g id="rule-copy-3" transform="translate(32.500000, 97.000000)"><rect id="Rectangle-3-Copy" width="147" height="21" x="0" y="0" fill="#FFF" stroke="#000" rx="5"/><text id="rule" fill="#000" font-family="Arial" font-size="12" font-weight="bold"><tspan x="28.182" y="14">rule</tspan></text><g id="rule-copy" transform="translate(6.262774, 4.000000)"><path id="interior" fill="#F4D7BD" stroke="#FFF" d="M7.09110273,0.0048828125 C7.09110273,0.0048828125 0.70449367,3.7069664 0.70449367,5.87154961 C0.70449367,8.03613281 7.09110273,12.0048828 7.09110273,12.0048828 L13.4684786,5.87154961 L7.09110273,0.0048828125 Z"/><path id="edge" stroke="#B1792C" d="M7.09110273,0.0048828125 C7.09110273,0.0048828125 0.70449367,3.7069664 0.70449367,5.87154961 C0.70449367,8.03613281 7.09110273,12.0048828 7.09110273,12.0048828 L13.4684786,5.87154961 L7.09110273,0.0048828125 Z"/></g></g></g></g></svg>