<svg xmlns="http://www.w3.org/2000/svg" xmlns:xlink="http://www.w3.org/1999/xlink" width="470" height="144" version="1.1" viewBox="0 0 470 144"><title>structure_header</title><desc>Created with Sketch.</desc><g id="Page-1" fill="none" fill-rule="evenodd" stroke="none" stroke-width="1"><g id="structure_header"><g id="style" transform="translate(6.000000, 6.000000)"><rect id="Rectangle-1" width="117" height="134" x="0" y="0" fill="#D8D8D8" stroke="#4A4A4A" rx="4"/><g id="style_icon" transform="translate(4.575472, 5.000000)"><path id="Path-228" fill="#F4D7BD" stroke="#B1792C" d="M1.00803361,3.15234384 C0.0854144053,4.58832168 -0.187665831,8.77636719 -0.187665831,8.77636719 L3.20997936,9.02636719 L5.00710311,12.341797 L7.37124576,12.341797 L12.2728985,9.02636728 L12.2728985,2.50878916 C12.2728985,2.50878916 10.7073082,0.610949042 9.68266325,-0.0849609375 C8.54378922,-0.858451873 5.00710311,-0.0849609343 5.00710311,-0.0849609343 C5.00710311,-0.0849609343 1.98322244,1.63454569 1.00803361,3.15234384 Z"/><path id="Oval-55-copy" fill="#F86660" d="M2.28773585,7 C3.04582486,7 3.66037736,6.32842717 3.66037736,5.5 C3.66037736,4.67157283 3.04582486,4 2.28773585,4 C1.52964684,4 0.91509434,4.67157283 0.91509434,5.5 C0.91509434,6.32842717 1.52964684,7 2.28773585,7 Z"/><path id="Oval-55-copy-2" fill="#FFDB4E" d="M7.77830189,4 C8.5363909,4 9.1509434,3.32842717 9.1509434,2.5 C9.1509434,1.67157283 8.5363909,1 7.77830189,1 C7.02021288,1 6.40566038,1.67157283 6.40566038,2.5 C6.40566038,3.32842717 7.02021288,4 7.77830189,4 Z"/><path id="Oval-55-copy-3" fill="#FFCC84" stroke="#FFB545" d="M5.03301887,4 C5.79110788,4 6.40566038,3.32842717 6.40566038,2.5 C6.40566038,1.67157283 5.79110788,1 5.03301887,1 C4.27492986,1 3.66037736,1.67157283 3.66037736,2.5 C3.66037736,3.32842717 4.27492986,4 5.03301887,4 Z"/><path id="Oval-55-copy-4" fill="#A7D17A" stroke="#8EC357" d="M9.60849057,7 C10.3665796,7 10.9811321,6.32842717 10.9811321,5.5 C10.9811321,4.67157283 10.3665796,4 9.60849057,4 C8.85040156,4 8.23584906,4.67157283 8.23584906,5.5 C8.23584906,6.32842717 8.85040156,7 9.60849057,7 Z"/><path id="Oval-55-copy-5" fill="#6BC2CF" stroke="#31A8BA" d="M8.69339623,10 C9.45148524,10 10.0660377,9.32842717 10.0660377,8.5 C10.0660377,7.67157283 9.45148524,7 8.69339623,7 C7.93530722,7 7.32075472,7.67157283 7.32075472,8.5 C7.32075472,9.32842717 7.93530722,10 8.69339623,10 Z"/><path id="Oval-55-copy-6" fill="#E9A36E" stroke="#EAA97C" d="M6.86320755,12 C7.62129656,12 8.23584906,11.3284272 8.23584906,10.5 C8.23584906,9.67157283 7.62129656,9 6.86320755,9 C6.10511854,9 5.49056604,9.67157283 5.49056604,10.5 C5.49056604,11.3284272 6.10511854,12 6.86320755,12 Z"/><path id="Oval-55" fill="#FFF" stroke="#B27A2F" d="M5.03301887,8 C5.79110788,8 6.40566038,7.32842717 6.40566038,6.5 C6.40566038,5.67157283 5.79110788,5 5.03301887,5 C4.27492986,5 3.66037736,5.67157283 3.66037736,6.5 C3.66037736,7.32842717 4.27492986,8 5.03301887,8 Z"/></g><text id="header" fill="#000" font-family="Arial" font-size="12" font-weight="bold"><tspan x="21.047" y="14">header</tspan></text><text id="name" fill="#000" font-family="Proxima Nova" font-size="10" font-weight="260"><tspan x="21.047" y="25">name</tspan> <tspan x="21.047" y="37">title</tspan> <tspan x="21.047" y="49">abstract</tspan></text></g><g id="feature-style" transform="translate(27.000000, 61.000000)"><rect id="box" width="147" height="21" x="0" y="0" fill="#F2F2F2" stroke="#4A4A4A" rx="4"/><text fill="#000" font-family="Arial" font-size="12" font-weight="bold"><tspan x="26" y="15">feature-style</tspan></text><g id="feature_style" transform="translate(4.000000, 8.000000)"><path id="border" fill="#F4D7BD" stroke="#FFF" d="M0.754882812,6.50254149 L5.75488281,0.423348942 L16.5048828,0.423348942 L11.5048828,6.50254149 L0.754882812,6.50254149 Z"/><path id="edge" stroke="#B1792C" d="M0.754882812,6.50254149 L5.75488281,0.423348942 L16.5048828,0.423348942 L11.5048828,6.50254149 L0.754882812,6.50254149 Z"/></g></g><g id="feature-style-copy" transform="translate(27.000000, 81.000000)"><rect id="box" width="147" height="21" x="0" y="0" fill="#F2F2F2" stroke="#4A4A4A" rx="4"/><text id="feature-style" fill="#000" font-family="Arial" font-size="12" font-weight="bold"><tspan x="26" y="14">feature-style</tspan></text><g id="feature_style" transform="translate(4.000000, 6.000000)"><path id="border" fill="#F4D7BD" stroke="#FFF" d="M0.754882812,6.50254149 L5.75488281,0.423348942 L16.5048828,0.423348942 L11.5048828,6.50254149 L0.754882812,6.50254149 Z"/><path id="edge" stroke="#B1792C" d="M0.754882812,6.50254149 L5.75488281,0.423348942 L16.5048828,0.423348942 L11.5048828,6.50254149 L0.754882812,6.50254149 Z"/></g></g><g id="feature-style-copy-2" transform="translate(27.000000, 101.000000)"><rect id="box" width="147" height="21" x="0" y="0" fill="#F2F2F2" stroke="#4A4A4A" rx="4"/><text id="feature-style" fill="#000" font-family="Arial" font-size="12" font-weight="bold"><tspan x="26" y="14">feature-style</tspan></text><g id="feature_style" transform="translate(4.000000, 6.000000)"><path id="border" fill="#F4D7BD" stroke="#FFF" d="M0.754882812,6.50254149 L5.75488281,0.423348942 L16.5048828,0.423348942 L11.5048828,6.50254149 L0.754882812,6.50254149 Z"/><path id="edge" stroke="#B1792C" d="M0.754882812,6.50254149 L5.75488281,0.423348942 L16.5048828,0.423348942 L11.5048828,6.50254149 L0.754882812,6.50254149 Z"/></g></g></g></g></svg>