<svg xmlns="http://www.w3.org/2000/svg" xmlns:xlink="http://www.w3.org/1999/xlink" width="470" height="92" version="1.1" viewBox="0 0 470 92"><title>structure_rule_all</title><desc>Created with Sketch.</desc><g id="Page-1" fill="none" fill-rule="evenodd" stroke="none" stroke-width="1"><g id="structure_rule_all"><rect id="box" width="144" height="47" x="5" y="5" fill="#F2F2F2" stroke="#4A4A4A" rx="4"/><text id="feature-style" fill="#000" font-family="Arial" font-size="12" font-weight="bold"><tspan x="31" y="17">feature-style</tspan></text><g id="feature_style" transform="translate(9.000000, 10.000000)"><path id="border" fill="#F4D7BD" stroke="#FFF" d="M0.754882812,6.50254149 L5.75488281,0.423348942 L16.5048828,0.423348942 L11.5048828,6.50254149 L0.754882812,6.50254149 Z"/><path id="edge" stroke="#B1792C" d="M0.754882812,6.50254149 L5.75488281,0.423348942 L16.5048828,0.423348942 L11.5048828,6.50254149 L0.754882812,6.50254149 Z"/></g><g id="rule" transform="translate(29.500000, 22.000000)"><rect id="Rectangle-3-Copy" width="147" height="66" x="0" y="0" fill="#FFF" stroke="#000" rx="5"/><text fill="#000" font-family="Arial" font-size="12" font-weight="bold"><tspan x="27" y="15">rule</tspan></text><g id="rule-copy" transform="translate(6.000000, 5.000000)"><path id="interior" fill="#F4D7BD" stroke="#FFF" d="M7.09110273,0.0048828125 C7.09110273,0.0048828125 0.70449367,3.7069664 0.70449367,5.87154961 C0.70449367,8.03613281 7.09110273,12.0048828 7.09110273,12.0048828 L13.4684786,5.87154961 L7.09110273,0.0048828125 Z"/><path id="edge" stroke="#B1792C" d="M7.09110273,0.0048828125 C7.09110273,0.0048828125 0.70449367,3.7069664 0.70449367,5.87154961 C0.70449367,8.03613281 7.09110273,12.0048828 7.09110273,12.0048828 L13.4684786,5.87154961 L7.09110273,0.0048828125 Z"/></g></g><g id="symbolizer" transform="translate(57.000000, 42.000000)"><rect id="symbolizer_box" width="163" height="20" x="0" y="0" fill="#FFF" stroke="#4A4A4A"/><text id="point" fill="#000" font-family="Arial" font-size="12" font-weight="bold"><tspan x="21" y="14">point</tspan></text><g id="point_icon-copy" fill="#95B5E6" stroke="#5D74BC" transform="translate(8.000000, 9.000000)"><circle id="point_icon" cx="2" cy="2" r="2"/></g></g><g id="symbolizer-copy" transform="translate(57.000000, 61.000000)"><rect id="symbolizer_box" width="163" height="20" x="0" y="0" fill="#FFF" stroke="#4A4A4A"/><text id="text" fill="#000" font-family="Arial" font-size="12" font-weight="bold"><tspan x="21" y="14">text</tspan></text><g id="text_icon-copy" fill="#5D74BC" font-family="Proxima Nova" font-size="8" font-weight="526" transform="translate(3.000000, 6.000000)"><text id="text_icon"><tspan x="0" y="7">Abc</tspan></text></g></g></g></g></svg>