<svg xmlns="http://www.w3.org/2000/svg" xmlns:xlink="http://www.w3.org/1999/xlink" width="580" height="219" version="1.1" viewBox="0 0 580 219"><title>coverage</title><description>Created with Sketch (http://www.bohemiancoding.com/sketch)</description><defs><radialGradient id="radialGradient-1" cx="84.772%" cy="31.253%" r="72.467%" fx="84.772%" fy="31.253%"><stop offset="0%" stop-color="#FFF" stop-opacity=".8"/><stop offset="20.063%" stop-color="#89BCD7" stop-opacity=".774"/><stop offset="100%" stop-color="#7EB5D3"/></radialGradient><radialGradient id="radialGradient-2" cx="18.06%" cy="72.929%" r="38.596%" fx="18.06%" fy="72.929%"><stop offset="0%" stop-color="#FFF" stop-opacity=".8"/><stop offset="100%" stop-color="#7EB5D3" stop-opacity=".5"/></radialGradient><filter id="filter-3" width="140%" height="140%" x="-20%" y="-20%" filterUnits="objectBoundingBox"><feOffset dx="1" dy="1" in="SourceAlpha" result="shadowOffsetOuter1"/><feGaussianBlur in="shadowOffsetOuter1" result="shadowBlurOuter1" stdDeviation="0"/><feColorMatrix in="shadowBlurOuter1" result="shadowMatrixOuter1" type="matrix" values="0 0 0 0 0 0 0 0 0 0 0 0 0 0 0 0 0 0 0.7 0"/><feMerge><feMergeNode in="shadowMatrixOuter1"/><feMergeNode in="SourceGraphic"/></feMerge></filter><filter id="filter-4" width="140%" height="140%" x="-20%" y="-20%" filterUnits="objectBoundingBox"><feOffset dx="1" dy="1" in="SourceAlpha" result="shadowOffsetOuter1"/><feGaussianBlur in="shadowOffsetOuter1" result="shadowBlurOuter1" stdDeviation="0"/><feColorMatrix in="shadowBlurOuter1" result="shadowMatrixOuter1" type="matrix" values="0 0 0 0 0 0 0 0 0 0 0 0 0 0 0 0 0 0 0.7 0"/><feMerge><feMergeNode in="shadowMatrixOuter1"/><feMergeNode in="SourceGraphic"/></feMerge></filter></defs><g id="Page-1" fill="none" fill-rule="evenodd" stroke="none" stroke-width="1"><g id="coverage"><g id="Path-20-+-Path-20-copy-+-Path-20-copy-2" transform="translate(290.000000, 16.000000)"><path id="Path-20" fill="url(#radialGradient-1)" d="M0,169 L128.939725,168.999994 C128.939725,168.999994 134.688621,163.054248 136.985627,150.290933 C139.282633,137.527619 136.330557,131.496447 136.985627,124.292947 C137.640697,117.089448 137.007981,117.313662 140.646687,110.03195 C144.285393,102.750238 142.088351,100.728872 151.019305,96.2090038 C159.950259,91.6891358 174.879795,92.7069126 174.879795,92.7069126 C174.879795,92.7069126 196.738251,86.7367644 209.052935,92.7069126 C221.367619,98.677061 223.66084,98.9807851 222.855177,115.965341 C222.049514,132.949896 206.321432,150.290933 206.321432,150.290933 L203.405073,169 L242,169 L242,-1.8774053e-15 L209.052937,-1.8774053e-15 C209.052937,-1.8774053e-15 206.210637,5.71123146 200.248189,14.2192782 C194.285741,22.7273251 188.562849,29.3896398 187.385363,30.9182983 C186.207877,32.4469566 185.03039,33.9756152 185.03039,33.9756152 C185.03039,33.9756152 181.304168,46.6339888 171.237237,53.4885904 C161.170306,60.3431928 154.379833,60.1724715 143.914582,61.971485 C133.449331,63.7704986 131.341529,66.5559474 121.890403,61.971485 C112.439276,57.3870236 113.566855,50.9018922 109.531145,45.2930945 C105.495436,39.6842967 108.18259,44.0857889 101.746478,33.9756152 C95.3103673,23.8654413 91.7150817,20.068975 89.3571551,13.6027618 C86.9992289,7.13654861 89.3571551,-1.8774053e-15 89.3571551,-1.8774053e-15 L0,-1.8774053e-15 L0,169 Z"/><path id="Path-20-copy" fill="url(#radialGradient-2)" d="M0,169 L128.939725,168.999994 C128.939725,168.999994 134.688621,163.054248 136.985627,150.290933 C139.282633,137.527619 136.330557,131.496447 136.985627,124.292947 C137.640697,117.089448 137.007981,117.313662 140.646687,110.03195 C144.285393,102.750238 142.088351,100.728872 151.019305,96.2090038 C159.950259,91.6891358 174.879795,92.7069126 174.879795,92.7069126 C174.879795,92.7069126 196.738251,86.7367644 209.052935,92.7069126 C221.367619,98.677061 223.66084,98.9807851 222.855177,115.965341 C222.049514,132.949896 206.321432,150.290933 206.321432,150.290933 L203.405073,169 L242,169 L242,-1.8774053e-15 L209.052937,-1.8774053e-15 C209.052937,-1.8774053e-15 206.210637,5.71123146 200.248189,14.2192782 C194.285741,22.7273251 188.562849,29.3896398 187.385363,30.9182983 C186.207877,32.4469566 185.03039,33.9756152 185.03039,33.9756152 C185.03039,33.9756152 181.304168,46.6339888 171.237237,53.4885904 C161.170306,60.3431928 154.379833,60.1724715 143.914582,61.971485 C133.449331,63.7704986 131.341529,66.5559474 121.890403,61.971485 C112.439276,57.3870236 113.566855,50.9018922 109.531145,45.2930945 C105.495436,39.6842967 108.18259,44.0857889 101.746478,33.9756152 C95.3103673,23.8654413 91.7150817,20.068975 89.3571551,13.6027618 C86.9992289,7.13654861 89.3571551,-1.8774053e-15 89.3571551,-1.8774053e-15 L0,-1.8774053e-15 L0,169 Z"/><path id="Path-20-copy-2" stroke="#000" d="M0,169 L128.939725,168.999994 C128.939725,168.999994 134.688621,163.054248 136.985627,150.290933 C139.282633,137.527619 136.330557,131.496447 136.985627,124.292947 C137.640697,117.089448 137.007981,117.313662 140.646687,110.03195 C144.285393,102.750238 142.088351,100.728872 151.019305,96.2090038 C159.950259,91.6891358 174.879795,92.7069126 174.879795,92.7069126 C174.879795,92.7069126 196.738251,86.7367644 209.052935,92.7069126 C221.367619,98.677061 223.66084,98.9807851 222.855177,115.965341 C222.049514,132.949896 206.321432,150.290933 206.321432,150.290933 L203.405073,169 L242,169 L242,-1.8774053e-15 L209.052937,-1.8774053e-15 C209.052937,-1.8774053e-15 206.210637,5.71123146 200.248189,14.2192782 C194.285741,22.7273251 188.562849,29.3896398 187.385363,30.9182983 C186.207877,32.4469566 185.03039,33.9756152 185.03039,33.9756152 C185.03039,33.9756152 181.304168,46.6339888 171.237237,53.4885904 C161.170306,60.3431928 154.379833,60.1724715 143.914582,61.971485 C133.449331,63.7704986 131.341529,66.5559474 121.890403,61.971485 C112.439276,57.3870236 113.566855,50.9018922 109.531145,45.2930945 C105.495436,39.6842967 108.18259,44.0857889 101.746478,33.9756152 C95.3103673,23.8654413 91.7150817,20.068975 89.3571551,13.6027618 C86.9992289,7.13654861 89.3571551,-1.8774053e-15 89.3571551,-1.8774053e-15 L0,-1.8774053e-15 L0,169 Z"/></g><g id="Path-20-+-Path-20-copy-+-Path-20-copy-3" fill="#7EB5D3" stroke="#000" transform="translate(30.000000, 17.000000)"><path id="Path-20-copy-2" d="M0,169 L128.939725,168.999994 C128.939725,168.999994 134.688621,163.054248 136.985627,150.290933 C139.282633,137.527619 136.330557,131.496447 136.985627,124.292947 C137.640697,117.089448 137.007981,117.313662 140.646687,110.03195 C144.285393,102.750238 142.088351,100.728872 151.019305,96.2090038 C159.950259,91.6891358 174.879795,92.7069126 174.879795,92.7069126 C174.879795,92.7069126 196.738251,86.7367644 209.052935,92.7069126 C221.367619,98.677061 223.66084,98.9807851 222.855177,115.965341 C222.049514,132.949896 206.321432,150.290933 206.321432,150.290933 L203.405073,169 L242,169 L242,-1.8774053e-15 L209.052937,-1.8774053e-15 C209.052937,-1.8774053e-15 206.210637,5.71123146 200.248189,14.2192782 C194.285741,22.7273251 188.562849,29.3896398 187.385363,30.9182983 C186.207877,32.4469566 185.03039,33.9756152 185.03039,33.9756152 C185.03039,33.9756152 181.304168,46.6339888 171.237237,53.4885904 C161.170306,60.3431928 154.379833,60.1724715 143.914582,61.971485 C133.449331,63.7704986 131.341529,66.5559474 121.890403,61.971485 C112.439276,57.3870236 113.566855,50.9018922 109.531145,45.2930945 C105.495436,39.6842967 108.18259,44.0857889 101.746478,33.9756152 C95.3103673,23.8654413 91.7150817,20.068975 89.3571551,13.6027618 C86.9992289,7.13654861 89.3571551,-1.8774053e-15 89.3571551,-1.8774053e-15 L0,-1.8774053e-15 L0,169 Z"/></g><text id="Ocean" fill="#FFF" filter="url(#filter-3)" font-family="Proxima Nova" font-size="20" font-weight="260"><tspan x="40" y="75">Ocean</tspan></text><text id="Ocean" fill="#FFF" filter="url(#filter-4)" font-family="Proxima Nova" font-size="20" font-weight="260"><tspan x="300" y="75">Ocean</tspan> <tspan x="300" y="99">Temperature</tspan></text><text id="Feature-and-Attribut" fill="#000" font-family="Proxima Nova" font-size="14" font-weight="260"><tspan x="87.88" y="206">Feature and Attribute</tspan></text><text id="Coverage-and-Measure" fill="#000" font-family="Proxima Nova" font-size="14" font-weight="260"><tspan x="340.761" y="206">Coverage and Measure</tspan></text></g></g></svg>