<svg xmlns="http://www.w3.org/2000/svg" xmlns:xlink="http://www.w3.org/1999/xlink" width="580" height="287" version="1.1" viewBox="0 0 580 287"><title>design</title><description>Created with Sketch (http://www.bohemiancoding.com/sketch)</description><g id="Page-1" fill="none" fill-rule="evenodd" stroke="none" stroke-width="1"><g id="design"><path id="Chart" fill="#FFF" stroke="#000" d="M70,250 L271,250 L271,54 L70,54 L70,250 Z"/><text id="Graphic-Design" fill="#000" font-family="Proxima Nova" font-size="24" font-weight="260"><tspan x="89" y="36">Graphic Design</tspan></text><text id="Cartography" fill="#000" font-family="Proxima Nova" font-size="24" font-weight="260"><tspan x="347" y="36">Cartography</tspan></text><g id="Group-copy" transform="translate(310.000000, 53.000000)"><path id="Path-1-copy-3" fill="#69CA14" stroke="#000" stroke-width=".5" d="M0,196 L201,196 L201,0 L0,0 L0,196 Z"/><path id="Path-3-copy-2" fill="#7D6CE1" stroke="#000" stroke-width=".5" d="M93,196 L111.26328,133.744948 L103.732167,90.5081816 L111.379354,79.8335535 L117.605116,39.1374887 L146.82691,26.7568883 L162.193359,0.0048828125 L200.653816,0.0048828125 L200.653816,196 L93,196 Z"/><path id="Path-31" stroke="#7D6CE1" stroke-width="2" d="M24,0 L31.0467087,7.186276 L37.868564,9.7978691 L46.5,8.07503805 L58.0779926,4.59421613 L63.9046274,8.07503805 L58.0779926,13.9467275 L53.4831632,22.3557839 L53.4831632,31.6360223 L61.8829025,44.7682141 L69,50.5852106 L69,59.9767884 L63.9046274,77"/><path id="Path-30" stroke="#7D6CE1" stroke-width="2" d="M1,120 L14.3099415,105.953982 C14.3099415,105.953982 25.1793372,89.8458932 25.1793372,89.8458932 L35.8070175,84.2110051 C35.8070175,84.2110051 49.2982456,81.1934364 52.0155945,81.1934362 C54.7329435,81.1934362 64.4405458,76 64.4405458,76 L72.0038986,76 C72.0038986,76 75.2211717,79.3413362 78.2709552,79.8220462 C81.1711392,80.2791762 88.0491337,79.3649162 90.9493177,79.8220462 C90.9493177,79.8220462 104,89.8458932 104,89.8458932"/><circle id="Oval-1-copy-2" cx="84" cy="74" r="5" fill="#FFF" stroke="#000"/><path id="Path-11-copy-2" fill="#FF5050" stroke="#000" stroke-width=".5" d="M8,114.025097 L12.2808939,125 L17,114.025097 C17,114.025097 15.8319519,110.000001 12.2808938,110 C8.72983564,109.999999 8,114.025097 8,114.025097 Z"/><path id="Path-5-copy-2" stroke="#000" stroke-width="2.5" d="M63,195 L75.1588248,156.658635 L92.4054293,131.859758 L101,92.310245 L95.0049193,57.992375 L95.7946663,30.8779987 L95.794668,0"/><path id="Path-1-copy-4" stroke="#000" d="M0,196 L201,196 L201,0 L0,0 L0,196 Z"/><text id="Randwick" fill="#FFF" stroke="#000" font-family="Proxima Nova" font-size="14" font-weight="526"><tspan x="74" y="64">Randwick</tspan></text></g><circle id="Oval-11" cx="167.5" cy="162.5" r="60.5" fill="#FF5050" stroke="#000"/><path id="Oval-11-copy" fill="#69C915" stroke="#000" d="M167.999656,102.00202 C201.182845,102.270448 228,129.253481 228,162.5 C228,195.913229 200.913229,223 167.5,223 C149.035476,223 132.50292,214.728265 121.405757,201.688222 L167.986328,163.300781 L167.999656,102.00202 Z"/><text id="Approval" fill="#000" font-family="Cantarell" font-size="18" font-weight="normal"><tspan x="131" y="82">Approval</tspan></text></g></g></svg>