<svg xmlns="http://www.w3.org/2000/svg" xmlns:xlink="http://www.w3.org/1999/xlink" width="334" height="234" version="1.1" viewBox="0 0 334 234"><title>layer_symbolset</title><description>Created with Sketch (http://www.bohemiancoding.com/sketch)</description><defs><filter id="filter-1" width="140%" height="140%" x="-20%" y="-20%" filterUnits="objectBoundingBox"><feOffset dx="1" dy="1" in="SourceAlpha" result="shadowOffsetOuter1"/><feGaussianBlur in="shadowOffsetOuter1" result="shadowBlurOuter1" stdDeviation="0"/><feColorMatrix in="shadowBlurOuter1" result="shadowMatrixOuter1" type="matrix" values="0 0 0 0 1 0 0 0 0 0.99993962 0 0 0 0 1 0 0 0 0.7 0"/><feMerge><feMergeNode in="shadowMatrixOuter1"/><feMergeNode in="SourceGraphic"/></feMerge></filter><filter id="filter-2" width="140%" height="140%" x="-20%" y="-20%" filterUnits="objectBoundingBox"><feOffset dx="1" dy="1" in="SourceAlpha" result="shadowOffsetOuter1"/><feGaussianBlur in="shadowOffsetOuter1" result="shadowBlurOuter1" stdDeviation="0"/><feColorMatrix in="shadowBlurOuter1" result="shadowMatrixOuter1" type="matrix" values="0 0 0 0 1 0 0 0 0 0.99993962 0 0 0 0 1 0 0 0 0.7 0"/><feMerge><feMergeNode in="shadowMatrixOuter1"/><feMergeNode in="SourceGraphic"/></feMerge></filter><filter id="filter-3" width="140%" height="140%" x="-20%" y="-20%" filterUnits="objectBoundingBox"><feOffset dx="1" dy="1" in="SourceAlpha" result="shadowOffsetOuter1"/><feGaussianBlur in="shadowOffsetOuter1" result="shadowBlurOuter1" stdDeviation="0"/><feColorMatrix in="shadowBlurOuter1" result="shadowMatrixOuter1" type="matrix" values="0 0 0 0 1 0 0 0 0 0.99993962 0 0 0 0 1 0 0 0 0.7 0"/><feMerge><feMergeNode in="shadowMatrixOuter1"/><feMergeNode in="SourceGraphic"/></feMerge></filter><filter id="filter-4" width="140%" height="140%" x="-20%" y="-20%" filterUnits="objectBoundingBox"><feOffset dx="1" dy="1" in="SourceAlpha" result="shadowOffsetOuter1"/><feGaussianBlur in="shadowOffsetOuter1" result="shadowBlurOuter1" stdDeviation="0"/><feColorMatrix in="shadowBlurOuter1" result="shadowMatrixOuter1" type="matrix" values="0 0 0 0 1 0 0 0 0 0.99993962 0 0 0 0 1 0 0 0 0.7 0"/><feMerge><feMergeNode in="shadowMatrixOuter1"/><feMergeNode in="SourceGraphic"/></feMerge></filter><filter id="filter-5" width="140%" height="140%" x="-20%" y="-20%" filterUnits="objectBoundingBox"><feOffset dx="1" dy="1" in="SourceAlpha" result="shadowOffsetOuter1"/><feGaussianBlur in="shadowOffsetOuter1" result="shadowBlurOuter1" stdDeviation="0"/><feColorMatrix in="shadowBlurOuter1" result="shadowMatrixOuter1" type="matrix" values="0 0 0 0 1 0 0 0 0 0.99993962 0 0 0 0 1 0 0 0 0.7 0"/><feMerge><feMergeNode in="shadowMatrixOuter1"/><feMergeNode in="SourceGraphic"/></feMerge></filter></defs><g id="Page-1" fill="none" fill-rule="evenodd" stroke="none" stroke-width="1"><g id="layer_symbolset"><rect id="Rectangle-7-copy" width="97" height="21" x="233" y="48" fill="#898989" stroke="#979797" stroke-width=".5"/><rect id="Rectangle-3-copy-2" width="12" height="12" x="238" y="103" fill="#D4D4D4" stroke="#979797" stroke-width=".5"/><rect id="Rectangle-7-copy-2" width="97" height="50" x="233" y="69" stroke="#979797" stroke-width=".5"/><circle id="Oval-1-copy-3" cx="243.5" cy="108.5" r="2.5" fill="#000"/><text id="Legend" fill="#FFF" font-family="Proxima Nova" font-size="12" font-weight="526"><tspan x="253" y="62">Legend</tspan></text><text id="Populated-Places" fill="#000" font-family="Proxima Nova" font-size="10" font-weight="260"><tspan x="237" y="82">Populated Places</tspan></text><rect id="Rectangle-3-copy" width="12" height="12" x="238" y="88" fill="#D4D4D4" stroke="#979797" stroke-width=".5"/><text id="Captial" fill="#000" font-family="Proxima Nova" font-size="10" font-weight="260"><tspan x="253" y="97">Captial</tspan></text><text id="City" fill="#000" font-family="Proxima Nova" font-size="10" font-weight="260"><tspan x="253" y="112">City</tspan></text><rect id="Rectangle-3-copy-5" width="12" height="12" x="238" y="123" fill="#D4D4D4" stroke="#979797" stroke-width=".5"/><rect id="Rectangle-7-copy-2" width="97" height="21" x="233" y="119" stroke="#979797" stroke-width=".5"/><path id="Line-copy-2" stroke="#000" stroke-dasharray="3 2" d="M239.5,129 L248.5,129"/><text id="Border" fill="#000" font-family="Proxima Nova" font-size="10" font-weight="260"><tspan x="253" y="132">Border</tspan></text><path id="Path-1-copy-4" fill="#7AAAC8" d="M9,221 L222,221 L222,22 L9,22 L9,221 Z"/><polygon id="Star-1" fill="#000" stroke="#FFF" points="244.5 96.75 241.855 98.141 242.36 95.195 240.22 93.109 243.177 92.68 244.5 90 245.823 92.68 248.78 93.109 246.64 95.195 247.145 98.141"/><path id="Land" fill="#DCDAB7" stroke="#979797" stroke-width=".5" d="M132.685547,21.4111328 L222.703125,21.4111328 L222.925781,67.0146484 L216.351562,71.8466797 L210.037109,72.5888672 L210.167969,83.5146484 L210.037109,92.1630859 L194.222656,100.920898 L171.59375,109.069336 L174.814453,112.051758 L170.722656,112.420898 L157.148438,128.069336 L160.082031,138.329102 L165.111328,140.680664 L155.705078,145.143555 L149.5,156.125977 L136.648438,160.069336 L129.482422,170.569336 L87.3339844,174.40332 L80.5820312,181.588867 L70.5371094,180.34668 L65.2226562,169.588867 L54.5742188,165.383789 L42.4453125,167.866211 L33.3164062,166.272461 L23.5371094,167.272461 L27.5019531,145.143555 L21.5566406,145.143555 L18.0742188,140.163086 L31.6484375,105.588867 L26.2226562,88.5322266 L22.1308594,73.9580078 L36.9453125,70.1064453 L38.4277344,65.1435547 L49.796875,64.6435547 L52.5195312,67.4951172 L94.1308594,70.0888672 L104.582031,68.2373047 L134.556641,70.5888672 L139.667969,66.2373047 L145.462891,27.5888672 L132.685547,21.4111328 Z"/><path id="Path-63" stroke="#000" stroke-dasharray="4 3" d="M133.259766,71.9433594 L138.205078,72.6835938 L137.962891,76.6464844 L159.962891,81.7382812 L171.574219,82.2207031 L172.814453,78.7382812 L190.59375,85.3125 L200.111328,87.4433594 L208.648438,86.4609375"/><path id="Path-62" stroke="#000" stroke-dasharray="4 3" d="M26.7695312,92.1640625 L34.4550781,89.4433594 L34.7128906,92.7949219 L49.6582031,94.7753906 L52.3984375,91.7949219 L60.9160156,92.1640625 L60.4355469,96.3691406 L66.8808594,97.8496094 L56.1386719,106.738281 L57.9902344,118 L54.5273438,118 L55.0273438,121.238281 L54.3984375,125.960938 L47.2128906,127.8125 L52.8613281,138.183594 L48.5273438,145.609375 L54.0839844,151.3125 L49.0273438,154.886719 L45.8242188,160.072266 L47.5644531,165.052734"/><path id="Path-61" fill="#DCDAB7" stroke="#979797" d="M44.234375,220.417969 L54.6230469,215.603516 L70.4375,188.935547 L78.3632812,185.5 L86.6230469,195.083984 L97.5,197.677734 L116.289062,194.455078 L130.123047,199.529297 L153,185.5 L160.251953,188.769531 L166.048828,182.324219 L180.271484,177.75 L204.974609,174.417969 L211.900391,169.34375 L222.029297,166.251953 L222.380859,221.046875 L44.234375,220.417969 Z"/><path id="Path-64" stroke="#000" stroke-dasharray="4 3" d="M126.037109,198.609375 L132.59375,204.404297 L133.705078,210.589844 L138.648438,220.367188"/><polygon id="Star-1" fill="#000" stroke="#FFF" points="104.5 118.75 101.855 120.141 102.36 117.195 100.22 115.109 103.177 114.68 104.5 112 105.823 114.68 108.78 115.109 106.64 117.195 107.145 120.141"/><polygon id="Star-1-copy" fill="#000" stroke="#FFF" points="21.5 144.75 18.855 146.141 19.36 143.195 17.22 141.109 20.177 140.68 21.5 138 22.823 140.68 25.78 141.109 23.64 143.195 24.145 146.141"/><polygon id="Star-1-copy-2" fill="#000" stroke="#FFF" points="56.5 215.75 53.855 217.141 54.36 214.195 52.22 212.109 55.177 211.68 56.5 209 57.823 211.68 60.78 212.109 58.64 214.195 59.145 217.141"/><polygon id="Star-1-copy-3" fill="#000" stroke="#FFF" points="206.5 174.75 203.855 176.141 204.36 173.195 202.22 171.109 205.177 170.68 206.5 168 207.823 170.68 210.78 171.109 208.64 173.195 209.145 176.141"/><polygon id="Star-1-copy-4" fill="#000" stroke="#FFF" points="182.5 86.75 179.855 88.141 180.36 85.195 178.22 83.109 181.177 82.68 182.5 80 183.823 82.68 186.78 83.109 184.64 85.195 185.145 88.141"/><path id="Path-1-copy-5" stroke="#000" d="M9,221 L222,221 L222,22 L9,22 L9,221 Z"/><text id="Andorra" fill="#000" filter="url(#filter-1)" font-family="Proxima Nova" font-size="9" font-weight="260"><tspan x="177" y="78">Andorra</tspan></text><text id="Madrid" fill="#000" filter="url(#filter-2)" font-family="Proxima Nova" font-size="9" font-weight="260"><tspan x="107" y="111">Madrid</tspan></text><text id="Barcelona" fill="#000" font-family="Proxima Nova" font-size="7" font-weight="260"><tspan x="179" y="107">Barcelona</tspan></text><text id="Algiers" fill="#000" filter="url(#filter-3)" font-family="Proxima Nova" font-size="9" font-weight="260"><tspan x="193" y="183">Algiers</tspan></text><text id="Lisbon" fill="#000" filter="url(#filter-4)" font-family="Proxima Nova" font-size="9" font-weight="260"><tspan x="27" y="141">Lisbon</tspan></text><text id="Casablanca" fill="#000" filter="url(#filter-5)" font-family="Proxima Nova" font-size="9" font-weight="260"><tspan x="61" y="211">Casablanca</tspan></text><circle id="Oval-1-copy-3" cx="191.5" cy="98.5" r="1.5" fill="#000"/><text id="Toulouse" fill="#000" font-family="Proxima Nova" font-size="7" font-weight="260"><tspan x="159" y="57">Toulouse</tspan></text><circle id="Oval-1-copy-4" cx="171.5" cy="48.5" r="1.5" fill="#000"/><text id="Valencia" fill="#000" font-family="Proxima Nova" font-size="7" font-weight="260"><tspan x="141" y="137">Valencia</tspan></text><circle id="Oval-1-copy-4" cx="153.5" cy="128.5" r="1.5" fill="#000"/><text id="Seville" fill="#000" font-family="Proxima Nova" font-size="7" font-weight="260"><tspan x="63" y="167">Seville</tspan></text><circle id="Oval-1-copy-5" cx="73.5" cy="158.5" r="1.5" fill="#000"/><text id="Zaragoza" fill="#000" font-family="Proxima Nova" font-size="7" font-weight="260"><tspan x="134" y="94">Zaragoza</tspan></text><circle id="Oval-1-copy-6" cx="148.5" cy="98.5" r="1.5" fill="#000"/></g></g></svg>