<svg xmlns="http://www.w3.org/2000/svg" xmlns:xlink="http://www.w3.org/1999/xlink" width="493" height="84" version="1.1" viewBox="0 0 493 84"><title>layer_composition</title><description>Created with Sketch (http://www.bohemiancoding.com/sketch)</description><g id="Page-1" fill="none" fill-rule="evenodd" stroke="none" stroke-width="1"><g id="layer_composition"><path id="Path-1-copy-2" fill="#69CA14" stroke="#000" d="M12.8242188,65.9414062 L414.90625,64.9140625 L477.839844,26.015625 L111.941406,26.53125 L12.8242188,65.9414062 Z"/><path id="Path-5-copy" stroke="#000" stroke-width="3" d="M140.089844,66.2119141 L172.929688,58.7802734 L219.259766,53.5654297 L256.970703,45.2490234 L259.328125,38.0322266 L277.548828,32.3310547 L290.324219,26.3447266"/><g id="Path-8-copy-+-Path-7-copy" stroke="#7D6CE1" stroke-width="2" transform="translate(64.000000, 27.000000)"><path id="Path-8-copy" d="M72.2910156,0.73828125 L80.7148438,3.40332031 L95.2705078,3.40332031 L108.40332,2.22460938 L113.175781,6.00390625 L126.930664,6.31152344 L135.240234,6.12597656 L138.28418,9.59765625"/><path id="Path-7-copy" d="M0.595703125,18.1738281 L36.3925781,15.828125 L53.2558594,11.6132812 L79.8925781,9.99804688 L101.943359,12.2285156 L138.242188,9.62695312 L166.851562,14.4570312 L183.599609,13.7148438 L206.779297,18.9296875"/></g><ellipse id="Oval-1-copy" cx="239" cy="39" fill="#FFF" stroke="#000" rx="6" ry="2"/><path id="Path-3-copy" fill="#7D6CE1" stroke="#979797" d="M415.878906,64.8789062 L215.207031,65.6210938 L265.023438,53.1914062 L261.308594,44.7304688 L278.683594,42.5039062 L301.035156,34.3007812 L368.914062,31.328125 L399.949219,25.8671875 L481.695312,25.3828125 L415.878906,64.8789062 Z"/><path id="Path-1-copy-3" stroke="#000" stroke-width="2" d="M12.8242188,65.9414062 L414.90625,64.9140625 L477.839844,26.015625 L111.941406,26.53125 L12.8242188,65.9414062 Z"/><path id="Path-11-copy" fill="#FF5050" stroke="#000" d="M87.5585938,27.3710938 L96.2987522,48.8378906 L105.933594,27.3710938 C105.933594,27.3710938 103.548829,19.4980492 96.2987518,19.4980469 C89.0486749,19.4980451 87.5585938,27.3710938 87.5585938,27.3710938 Z"/></g></g></svg>