<svg xmlns="http://www.w3.org/2000/svg" xmlns:xlink="http://www.w3.org/1999/xlink" width="580" height="176" version="1.1" viewBox="0 0 580 176"><title>LineSymbolizer</title><description>Created with Sketch (http://www.bohemiancoding.com/sketch)</description><g id="Page-1" fill="none" fill-rule="evenodd" stroke="none" stroke-width="1"><g id="LineSymbolizer"><g id="Grid" stroke="#979797" stroke-width="2" transform="translate(13.000000, 8.000000)"><rect id="Rectangle-1" width="147" height="153" x="0" y="0" fill="#010240"/><path id="Line" stroke-linecap="square" d="M146.5,31 L0.5,31"/><path id="Line-copy" stroke-linecap="square" d="M146.5,61 L0.5,61"/><path id="Line-copy-2" stroke-linecap="square" d="M146.5,91 L0.5,91"/><path id="Line-copy-3" stroke-linecap="square" d="M146.5,121 L0.5,121"/><path id="Line" stroke-linecap="square" d="M28,1.51689189 L28,153.483108"/><path id="Line-copy" stroke-linecap="square" d="M58,1.51689189 L58,153.483108"/><path id="Line-copy-2" stroke-linecap="square" d="M88,1.51689189 L88,153.483108"/><path id="Line-copy-3" stroke-linecap="square" d="M118,1.51689189 L118,153.483108"/></g><g id="Vertext-Data" transform="translate(35.000000, 67.000000)"><circle id="Oval-1-copy" cx="4.5" cy="17.5" r="4.5" fill="#FFF" stroke="#000"/><circle id="Oval-1-copy-2" cx="35.5" cy="4.5" r="4.5" fill="#FFF" stroke="#000"/><circle id="Oval-1-copy-3" cx="65.5" cy="19.5" r="4.5" fill="#FFF" stroke="#000"/><circle id="Oval-1-copy-4" cx="94.5" cy="62.5" r="4.5" fill="#FFF" stroke="#000"/><path id="LineString" stroke="#FFF" stroke-width="2" d="M6.21875,18.6796875 L38.109375,3.625 L66.3671875,18.6796875 L94.9960938,62.8828125"/></g><g id="Default" transform="translate(172.000000, 8.000000)"><rect id="Rectangle-1" width="147" height="153" x="0" y="0" stroke="#979797"/><text id="(SLD-Default)" fill="#000" font-family="Proxima Nova" font-size="13" font-weight="260"><tspan x="38.334" y="12">(SLD Default)</tspan></text><path id="LineString" stroke="#000" stroke-width="2" d="M29.21875,77.6796875 L61.109375,62.625 L89.3671875,77.6796875 L117.996094,121.882812"/><g id="Callout" transform="translate(69.000000, 38.000000)"><path id="Line" stroke="#000" stroke-linecap="square" d="M24.5,14.5 L8.5,14.5"/><text id="Label" fill="#000" font-family="Proxima Nova" font-size="13" font-weight="260"><tspan x="0" y="12">stroke: black</tspan></text><path id="Line" stroke="#000" stroke-linecap="square" d="M16.5,14.5 L8.5,33.5"/></g></g><rect id="Rectangle-1-copy-2" width="147" height="153" x="333" y="8" stroke="#979797"/><text id="default_line.sld" fill="#000" font-family="Proxima Nova" font-size="13" font-weight="260"><tspan x="364.211" y="20">default_line.sld</tspan></text><path id="LineString" stroke="#00F" stroke-width="2" d="M351.21875,85.6796875 L383.109375,70.625 L411.367188,85.6796875 L439.996094,129.882812"/><g id="Callout" transform="translate(391.000000, 46.000000)"><path id="Line" stroke="#000" stroke-linecap="square" d="M24.5,14.5 L8.5,14.5"/><text id="Label" fill="#000" font-family="Proxima Nova" font-size="13" font-weight="260"><tspan x="0" y="12">stroke: blue</tspan></text><path id="Line" stroke="#000" stroke-linecap="square" d="M16.5,14.5 L8.5,33.5"/></g></g></g></svg>