<svg xmlns="http://www.w3.org/2000/svg" xmlns:xlink="http://www.w3.org/1999/xlink" width="580" height="189" version="1.1" viewBox="0 0 580 189"><title>PointSymbolizer</title><description>Created with Sketch (http://www.bohemiancoding.com/sketch)</description><g id="Page-1" fill="none" fill-rule="evenodd" stroke="none" stroke-width="1"><g id="PointSymbolizer"><g id="Grid" stroke="#979797" stroke-width="2" transform="translate(13.000000, 13.000000)"><rect id="Rectangle-1" width="147" height="153" x="0" y="0" fill="#010240"/><path id="Line" stroke-linecap="square" d="M146.5,31 L0.5,31"/><path id="Line-copy" stroke-linecap="square" d="M146.5,61 L0.5,61"/><path id="Line-copy-2" stroke-linecap="square" d="M146.5,91 L0.5,91"/><path id="Line-copy-3" stroke-linecap="square" d="M146.5,121 L0.5,121"/><path id="Line" stroke-linecap="square" d="M28,1.51689189 L28,153.483108"/><path id="Line-copy" stroke-linecap="square" d="M58,1.51689189 L58,153.483108"/><path id="Line-copy-2" stroke-linecap="square" d="M88,1.51689189 L88,153.483108"/><path id="Line-copy-3" stroke-linecap="square" d="M118,1.51689189 L118,153.483108"/></g><circle id="Oval-1" cx="70.5" cy="104.5" r="4.5" fill="#FFF" stroke="#000"/><rect id="Rectangle-1" width="147" height="153" x="173" y="13" stroke="#979797"/><text id="Label" fill="#000" font-family="Proxima Nova" font-size="13" font-weight="260"><tspan x="241" y="46">mark: square</tspan> <tspan x="241" y="62">size: 6</tspan></text><rect id="Rectangle-4" width="18" height="18" x="211" y="95" fill="gray" stroke="#000" stroke-width="2"/><rect id="Rectangle-1-copy" width="147" height="153" x="333" y="13" stroke="#979797"/><g id="Callout" transform="translate(221.000000, 80.000000)"><path id="Line" stroke="#000" stroke-linecap="square" d="M17.5,3.5 L17.5,14.5"/><text id="Label" fill="#000" font-family="Proxima Nova" font-size="13" font-weight="260"><tspan x="24" y="12">fill: gray</tspan></text><path id="Line" stroke="#000" stroke-linecap="square" d="M17.5,9.5 L0.5,23.5"/></g><g id="Callout" transform="translate(228.000000, 107.000000)"><path id="Line" stroke="#000" stroke-linecap="square" d="M10.5,3.5 L10.5,14.5"/><path id="Line" stroke="#000" stroke-linecap="square" d="M10.5,9.5 L0.296875,4.72070312"/><text id="Label" fill="#000" font-family="Proxima Nova" font-size="13" font-weight="260"><tspan x="17" y="12">stroke: black</tspan></text></g><g id="Callout-copy" transform="translate(388.000000, 107.000000)"><path id="Line" stroke="#9B9B9B" stroke-linecap="square" d="M10.5,3.5 L10.5,14.5"/><path id="Line" stroke="#9B9B9B" stroke-linecap="square" d="M10.5,9.5 L0.296875,4.72070312"/><text id="Label" fill="#9B9B9B" font-family="Proxima Nova" font-size="13" font-weight="260"><tspan x="17" y="12">stroke: black</tspan> <tspan x="17" y="28">(default)</tspan></text></g><text id="Label-copy" fill="#000" font-family="Proxima Nova" font-size="13" font-weight="260"><tspan x="401" y="46">mark: square</tspan> <tspan x="401" y="62">size: 6</tspan></text><g id="Callout-copy" transform="translate(381.000000, 80.000000)"><path id="Line" stroke="#000" stroke-linecap="square" d="M17.5,3.5 L17.5,14.5"/><text id="Label" fill="#000" font-family="Proxima Nova" font-size="13" font-weight="260"><tspan x="24" y="12">fill: red</tspan></text><path id="Line" stroke="#000" stroke-linecap="square" d="M17.5,9.5 L0.5,23.5"/></g><rect id="Rectangle-4-copy" width="18" height="18" x="371" y="95" fill="red" stroke="#000" stroke-width="2"/><text id="(SLD-Default)" fill="#000" font-family="Proxima Nova" font-size="13" font-weight="260"><tspan x="210.334" y="25">(SLD Default)</tspan></text><text id="default_point.sld" fill="#000" font-family="Proxima Nova" font-size="13" font-weight="260"><tspan x="360.045" y="25">default_point.sld</tspan></text></g></g></svg>