<svg xmlns="http://www.w3.org/2000/svg" xmlns:xlink="http://www.w3.org/1999/xlink" width="580" height="176" version="1.1" viewBox="0 0 580 176"><title>PolygonSymbolizer</title><description>Created with Sketch (http://www.bohemiancoding.com/sketch)</description><g id="Page-1" fill="none" fill-rule="evenodd" stroke="none" stroke-width="1"><g id="PolygonSymbolizer"><g id="Grid" stroke="#979797" stroke-width="2" transform="translate(13.000000, 8.000000)"><rect id="Rectangle-1" width="147" height="153" x="0" y="0" fill="#010240"/><path id="Line" stroke-linecap="square" d="M146.5,31 L0.5,31"/><path id="Line-copy" stroke-linecap="square" d="M146.5,61 L0.5,61"/><path id="Line-copy-2" stroke-linecap="square" d="M146.5,91 L0.5,91"/><path id="Line-copy-3" stroke-linecap="square" d="M146.5,121 L0.5,121"/><path id="Line" stroke-linecap="square" d="M28,1.51689189 L28,153.483108"/><path id="Line-copy" stroke-linecap="square" d="M58,1.51689189 L58,153.483108"/><path id="Line-copy-2" stroke-linecap="square" d="M88,1.51689189 L88,153.483108"/><path id="Line-copy-3" stroke-linecap="square" d="M118,1.51689189 L118,153.483108"/></g><g id="Vertext-Data" transform="translate(36.000000, 35.000000)"><circle id="Oval-1-copy" cx="4.5" cy="94.5" r="4.5" fill="#FFF" stroke="#000"/><circle id="Oval-1-copy-2" cx="50.5" cy="4.5" r="4.5" fill="#FFF" stroke="#000"/><circle id="Oval-1-copy-3" cx="93.5" cy="34.5" r="4.5" fill="#FFF" stroke="#000"/><circle id="Oval-1-copy-4" cx="93.5" cy="94.5" r="4.5" fill="#FFF" stroke="#000"/><path id="Polygon" stroke="#FFF" stroke-width="2" d="M51.09375,4.4609375 L5.46484375,94.1796875 L94.0742188,94.1796875 L94.0742188,34.7382812 L51.09375,4.4609375 Z"/></g><g id="Default" transform="translate(172.000000, 8.000000)"><rect id="Rectangle-1" width="147" height="153" x="0" y="0" stroke="#979797"/><path id="Polygon" fill="gray" d="M70.09375,31.4609375 L24.4648438,121.179688 L113.074219,121.179688 L113.074219,61.7382812 L70.09375,31.4609375 Z"/><text id="(SLD-Default)" fill="#000" font-family="Proxima Nova" font-size="13" font-weight="260"><tspan x="38.334" y="12">(SLD Default)</tspan></text><g id="Callout" transform="translate(75.000000, 28.000000)"><path id="Line" stroke="#000" stroke-linecap="square" d="M17.5,3.5 L17.5,14.5"/><text id="Label" fill="#000" font-family="Proxima Nova" font-size="13" font-weight="260"><tspan x="24" y="12">fill: gray</tspan></text><path id="Line" stroke="#000" stroke-linecap="square" d="M17.5,9.5 L0.5,23.5"/></g></g><path id="Polygon-copy" fill="gray" stroke="#000" stroke-width="2" d="M402.09375,39.4609375 L356.464844,129.179688 L445.074219,129.179688 L445.074219,69.7382812 L402.09375,39.4609375 Z"/><g id="Callout" transform="translate(409.000000, 36.000000)"><path id="Line" stroke="#000" stroke-linecap="square" d="M17.5,3.5 L17.5,14.5"/><text id="Label" fill="#000" font-family="Proxima Nova" font-size="13" font-weight="260"><tspan x="24" y="12">fill: gray</tspan></text><path id="Line" stroke="#000" stroke-linecap="square" d="M17.5,9.5 L0.5,23.5"/></g><g id="Callout" transform="translate(375.000000, 130.000000)"><path id="Line" stroke="#000" stroke-linecap="square" d="M20.5,8.5 L20.5,19.5"/><path id="Line" stroke="#000" stroke-linecap="square" d="M20.5,14.5 L0.5,0.5"/><text id="Label" fill="#000" font-family="Proxima Nova" font-size="13" font-weight="260"><tspan x="27" y="17">stroke: black</tspan></text></g><rect id="Rectangle-1-copy-2" width="147" height="153" x="333" y="8" stroke="#979797"/><text id="default_polygon.sld" fill="#000" font-family="Proxima Nova" font-size="13" font-weight="260"><tspan x="351.289" y="20">default_polygon.sld</tspan></text></g></g></svg>